<svg width="130" height="40" viewBox="0 0 130 40" fill="none" xmlns="http://www.w3.org/2000/svg">
<g filter="url(#filter0_d_1_1486)">
<rect x="2" y="1" width="126" height="36" rx="6" fill="white"/>
<path d="M33 24.8333H23C22.337 24.8333 21.7011 24.5699 21.2322 24.1011C20.7634 23.6323 20.5 22.9964 20.5 22.3333V15.6667C20.5 15.4457 20.4122 15.2337 20.2559 15.0774C20.0996 14.9211 19.8877 14.8333 19.6667 14.8333C19.4457 14.8333 19.2337 14.9211 19.0774 15.0774C18.9211 15.2337 18.8333 15.4457 18.8333 15.6667V22.3333C18.8333 23.4384 19.2723 24.4982 20.0537 25.2796C20.4406 25.6665 20.9 25.9734 21.4055 26.1828C21.911 26.3922 22.4528 26.5 23 26.5H33C33.221 26.5 33.433 26.4122 33.5893 26.2559C33.7455 26.0996 33.8333 25.8877 33.8333 25.6667C33.8333 25.4457 33.7455 25.2337 33.5893 25.0774C33.433 24.9211 33.221 24.8333 33 24.8333ZM37.1667 17.2833C37.158 17.2068 37.1412 17.1314 37.1167 17.0583V16.9833C37.0766 16.8976 37.0232 16.8189 36.9583 16.75L31.9583 11.75C31.8894 11.6852 31.8107 11.6317 31.725 11.5917H31.65L31.3833 11.5H24.6667C24.0036 11.5 23.3677 11.7634 22.8989 12.2322C22.4301 12.7011 22.1667 13.337 22.1667 14V20.6667C22.1667 21.3297 22.4301 21.9656 22.8989 22.4344C23.3677 22.9033 24.0036 23.1667 24.6667 23.1667H34.6667C35.3297 23.1667 35.9656 22.9033 36.4344 22.4344C36.9033 21.9656 37.1667 21.3297 37.1667 20.6667V17.3333C37.1667 17.3333 37.1667 17.3333 37.1667 17.2833ZM32.1667 14.3417L34.325 16.5H33C32.779 16.5 32.567 16.4122 32.4107 16.2559C32.2545 16.0996 32.1667 15.8877 32.1667 15.6667V14.3417ZM35.5 20.6667C35.5 20.8877 35.4122 21.0996 35.2559 21.2559C35.0996 21.4122 34.8877 21.5 34.6667 21.5H24.6667C24.4457 21.5 24.2337 21.4122 24.0774 21.2559C23.9211 21.0996 23.8333 20.8877 23.8333 20.6667V14C23.8333 13.779 23.9211 13.567 24.0774 13.4107C24.2337 13.2545 24.4457 13.1667 24.6667 13.1667H30.5V15.6667C30.5 16.3297 30.7634 16.9656 31.2322 17.4344C31.7011 17.9033 32.337 18.1667 33 18.1667H35.5V20.6667Z" fill="#BBC3CF"/>
<path d="M44.518 19.114C44.518 18.162 44.7373 17.308 45.176 16.552C45.624 15.796 46.226 15.208 46.982 14.788C47.7473 14.3587 48.5827 14.144 49.488 14.144C50.524 14.144 51.4433 14.4007 52.246 14.914C53.058 15.418 53.646 16.1367 54.01 17.07H52.092C51.84 16.5567 51.49 16.174 51.042 15.922C50.594 15.67 50.076 15.544 49.488 15.544C48.844 15.544 48.27 15.6887 47.766 15.978C47.262 16.2673 46.8653 16.6827 46.576 17.224C46.296 17.7653 46.156 18.3953 46.156 19.114C46.156 19.8327 46.296 20.4627 46.576 21.004C46.8653 21.5453 47.262 21.9653 47.766 22.264C48.27 22.5533 48.844 22.698 49.488 22.698C50.076 22.698 50.594 22.572 51.042 22.32C51.49 22.068 51.84 21.6853 52.092 21.172H54.01C53.646 22.1053 53.058 22.824 52.246 23.328C51.4433 23.832 50.524 24.084 49.488 24.084C48.5733 24.084 47.738 23.874 46.982 23.454C46.226 23.0247 45.624 22.432 45.176 21.676C44.7373 20.92 44.518 20.066 44.518 19.114ZM59.2241 24.126C58.4961 24.126 57.8381 23.9627 57.2501 23.636C56.6621 23.3 56.2001 22.8333 55.8641 22.236C55.5281 21.6293 55.3601 20.9293 55.3601 20.136C55.3601 19.352 55.5328 18.6567 55.8781 18.05C56.2235 17.4433 56.6948 16.9767 57.2921 16.65C57.8895 16.3233 58.5568 16.16 59.2941 16.16C60.0315 16.16 60.6988 16.3233 61.2961 16.65C61.8935 16.9767 62.3648 17.4433 62.7101 18.05C63.0555 18.6567 63.2281 19.352 63.2281 20.136C63.2281 20.92 63.0508 21.6153 62.6961 22.222C62.3415 22.8287 61.8561 23.3 61.2401 23.636C60.6335 23.9627 59.9615 24.126 59.2241 24.126ZM59.2241 22.74C59.6348 22.74 60.0175 22.642 60.3721 22.446C60.7361 22.25 61.0301 21.956 61.2541 21.564C61.4781 21.172 61.5901 20.696 61.5901 20.136C61.5901 19.576 61.4828 19.1047 61.2681 18.722C61.0535 18.33 60.7688 18.036 60.4141 17.84C60.0595 17.644 59.6768 17.546 59.2661 17.546C58.8555 17.546 58.4728 17.644 58.1181 17.84C57.7728 18.036 57.4975 18.33 57.2921 18.722C57.0868 19.1047 56.9841 19.576 56.9841 20.136C56.9841 20.9667 57.1941 21.6107 57.6141 22.068C58.0435 22.516 58.5801 22.74 59.2241 22.74ZM66.4019 17.42C66.6725 17.0653 67.0412 16.7667 67.5079 16.524C67.9745 16.2813 68.5019 16.16 69.0899 16.16C69.7619 16.16 70.3732 16.328 70.9239 16.664C71.4839 16.9907 71.9225 17.4527 72.2399 18.05C72.5572 18.6473 72.7159 19.3333 72.7159 20.108C72.7159 20.8827 72.5572 21.578 72.2399 22.194C71.9225 22.8007 71.4839 23.2767 70.9239 23.622C70.3732 23.958 69.7619 24.126 69.0899 24.126C68.5019 24.126 67.9792 24.0093 67.5219 23.776C67.0645 23.5333 66.6912 23.2347 66.4019 22.88V27.668H64.8059V16.286H66.4019V17.42ZM71.0919 20.108C71.0919 19.576 70.9799 19.1187 70.7559 18.736C70.5412 18.344 70.2519 18.05 69.8879 17.854C69.5332 17.6487 69.1505 17.546 68.7399 17.546C68.3385 17.546 67.9559 17.6487 67.5919 17.854C67.2372 18.0593 66.9479 18.358 66.7239 18.75C66.5092 19.142 66.4019 19.604 66.4019 20.136C66.4019 20.668 66.5092 21.1347 66.7239 21.536C66.9479 21.928 67.2372 22.2267 67.5919 22.432C67.9559 22.6373 68.3385 22.74 68.7399 22.74C69.1505 22.74 69.5332 22.6373 69.8879 22.432C70.2519 22.2173 70.5412 21.9093 70.7559 21.508C70.9799 21.1067 71.0919 20.64 71.0919 20.108ZM81.2381 16.286L76.5061 27.626H74.8541L76.4221 23.874L73.3841 16.286H75.1621L77.3321 22.166L79.5861 16.286H81.2381ZM87.6753 22.712H90.9653V24H86.0793V14.27H87.6753V22.712ZM93.112 15.264C92.8227 15.264 92.58 15.166 92.384 14.97C92.188 14.774 92.09 14.5313 92.09 14.242C92.09 13.9527 92.188 13.71 92.384 13.514C92.58 13.318 92.8227 13.22 93.112 13.22C93.392 13.22 93.63 13.318 93.826 13.514C94.022 13.71 94.12 13.9527 94.12 14.242C94.12 14.5313 94.022 14.774 93.826 14.97C93.63 15.166 93.392 15.264 93.112 15.264ZM93.896 16.286V24H92.3V16.286H93.896ZM99.8834 16.16C100.49 16.16 101.031 16.286 101.507 16.538C101.993 16.79 102.371 17.1633 102.641 17.658C102.912 18.1527 103.047 18.75 103.047 19.45V24H101.465V19.688C101.465 18.9973 101.293 18.47 100.947 18.106C100.602 17.7327 100.131 17.546 99.5334 17.546C98.9361 17.546 98.4601 17.7327 98.1054 18.106C97.7601 18.47 97.5874 18.9973 97.5874 19.688V24H95.9914V16.286H97.5874V17.168C97.8487 16.8507 98.1801 16.6033 98.5814 16.426C98.9921 16.2487 99.4261 16.16 99.8834 16.16ZM108.135 20.15L111.691 24H109.535L106.679 20.682V24H105.083V13.64H106.679V19.66L109.479 16.286H111.691L108.135 20.15Z" fill="#556987"/>
<rect x="2.5" y="1.5" width="125" height="35" rx="5.5" stroke="#D5DAE1"/>
</g>
<defs>
<filter id="filter0_d_1_1486" x="0" y="0" width="130" height="40" filterUnits="userSpaceOnUse" color-interpolation-filters="sRGB">
<feFlood flood-opacity="0" result="BackgroundImageFix"/>
<feColorMatrix in="SourceAlpha" type="matrix" values="0 0 0 0 0 0 0 0 0 0 0 0 0 0 0 0 0 0 127 0" result="hardAlpha"/>
<feOffset dy="1"/>
<feGaussianBlur stdDeviation="1"/>
<feColorMatrix type="matrix" values="0 0 0 0 0.411765 0 0 0 0 0.317647 0 0 0 0 1 0 0 0 0.05 0"/>
<feBlend mode="normal" in2="BackgroundImageFix" result="effect1_dropShadow_1_1486"/>
<feBlend mode="normal" in="SourceGraphic" in2="effect1_dropShadow_1_1486" result="shape"/>
</filter>
</defs>
</svg>
