<svg width="40" height="40" viewBox="0 0 40 40" fill="none" xmlns="http://www.w3.org/2000/svg">
<g filter="url(#filter0_d_1_1489)">
<rect x="2" y="1" width="36" height="36" rx="6" fill="white"/>
<path d="M24.45 13.55C24.2522 13.55 24.0589 13.6086 23.8944 13.7185C23.73 13.8284 23.6018 13.9845 23.5261 14.1673C23.4504 14.35 23.4306 14.5511 23.4692 14.745C23.5078 14.939 23.603 15.1172 23.7429 15.2571C23.8827 15.3969 24.0609 15.4922 24.2549 15.5307C24.4489 15.5693 24.65 15.5495 24.8327 15.4738C25.0154 15.3982 25.1716 15.27 25.2815 15.1055C25.3913 14.9411 25.45 14.7477 25.45 14.55C25.45 14.2847 25.3446 14.0304 25.1571 13.8429C24.9696 13.6553 24.7152 13.55 24.45 13.55ZM28.2833 15.5666C28.2671 14.8752 28.1376 14.1911 27.9 13.5416C27.6881 12.9859 27.3583 12.4827 26.9333 12.0666C26.5207 11.6395 26.0163 11.3118 25.4583 11.1083C24.8105 10.8634 24.1257 10.731 23.4333 10.7166C22.55 10.6666 22.2667 10.6666 20 10.6666C17.7333 10.6666 17.45 10.6666 16.5667 10.7166C15.8743 10.731 15.1895 10.8634 14.5417 11.1083C13.9847 11.3138 13.4808 11.6413 13.0667 12.0666C12.6395 12.4793 12.3118 12.9837 12.1083 13.5416C11.8635 14.1894 11.731 14.8743 11.7167 15.5666C11.6667 16.45 11.6667 16.7333 11.6667 19C11.6667 21.2666 11.6667 21.55 11.7167 22.4333C11.731 23.1257 11.8635 23.8105 12.1083 24.4583C12.3118 25.0163 12.6395 25.5206 13.0667 25.9333C13.4808 26.3587 13.9847 26.6861 14.5417 26.8916C15.1895 27.1365 15.8743 27.269 16.5667 27.2833C17.45 27.3333 17.7333 27.3333 20 27.3333C22.2667 27.3333 22.55 27.3333 23.4333 27.2833C24.1257 27.269 24.8105 27.1365 25.4583 26.8916C26.0163 26.6881 26.5207 26.3604 26.9333 25.9333C27.3602 25.5188 27.6903 25.0151 27.9 24.4583C28.1376 23.8088 28.2671 23.1247 28.2833 22.4333C28.2833 21.55 28.3333 21.2666 28.3333 19C28.3333 16.7333 28.3333 16.45 28.2833 15.5666ZM26.7833 22.3333C26.7773 22.8623 26.6815 23.3864 26.5 23.8833C26.3669 24.246 26.1532 24.5736 25.875 24.8416C25.6047 25.117 25.2777 25.3303 24.9167 25.4666C24.4197 25.6481 23.8956 25.7439 23.3667 25.75C22.5333 25.7916 22.225 25.8 20.0333 25.8C17.8417 25.8 17.5333 25.8 16.7 25.75C16.1507 25.7602 15.6038 25.6757 15.0833 25.5C14.7381 25.3567 14.4261 25.1439 14.1667 24.875C13.8901 24.6072 13.679 24.2793 13.55 23.9166C13.3465 23.4126 13.2337 22.8766 13.2167 22.3333C13.2167 21.5 13.1667 21.1916 13.1667 19C13.1667 16.8083 13.1667 16.5 13.2167 15.6666C13.2204 15.1258 13.3191 14.5899 13.5083 14.0833C13.655 13.7316 13.8802 13.418 14.1667 13.1666C14.4198 12.8801 14.7327 12.6525 15.0833 12.5C15.5913 12.3167 16.1267 12.2209 16.6667 12.2166C17.5 12.2166 17.8083 12.1666 20 12.1666C22.1917 12.1666 22.5 12.1666 23.3333 12.2166C23.8623 12.2227 24.3864 12.3185 24.8833 12.5C25.262 12.6405 25.6019 12.869 25.875 13.1666C26.1481 13.4226 26.3615 13.7356 26.5 14.0833C26.6852 14.5907 26.7811 15.1264 26.7833 15.6666C26.825 16.5 26.8333 16.8083 26.8333 19C26.8333 21.1916 26.825 21.5 26.7833 22.3333ZM20 14.725C19.1548 14.7266 18.3291 14.9787 17.6272 15.4495C16.9253 15.9202 16.3786 16.5885 16.0564 17.3698C15.7341 18.1511 15.6506 19.0103 15.8165 19.8391C15.9824 20.6678 16.3902 21.4287 16.9884 22.0258C17.5866 22.6228 18.3483 23.0291 19.1774 23.1934C20.0064 23.3577 20.8656 23.2725 21.6462 22.9487C22.4269 22.6249 23.0941 22.077 23.5634 21.3742C24.0328 20.6713 24.2833 19.8451 24.2833 19C24.2844 18.4375 24.1743 17.8805 23.9594 17.3608C23.7444 16.841 23.4288 16.369 23.0307 15.9717C22.6326 15.5744 22.16 15.2597 21.6398 15.0457C21.1197 14.8318 20.5624 14.7228 20 14.725ZM20 21.775C19.4512 21.775 18.9146 21.6122 18.4583 21.3073C18.0019 21.0024 17.6463 20.569 17.4362 20.0619C17.2262 19.5548 17.1712 18.9969 17.2783 18.4586C17.3854 17.9203 17.6497 17.4258 18.0378 17.0377C18.4259 16.6496 18.9203 16.3854 19.4586 16.2783C19.9969 16.1712 20.5549 16.2262 21.0619 16.4362C21.569 16.6462 22.0024 17.0019 22.3073 17.4583C22.6122 17.9146 22.775 18.4511 22.775 19C22.775 19.3644 22.7032 19.7252 22.5638 20.0619C22.4243 20.3986 22.2199 20.7045 21.9622 20.9622C21.7045 21.2199 21.3986 21.4243 21.0619 21.5637C20.7253 21.7032 20.3644 21.775 20 21.775Z" fill="#556987"/>
<rect x="2.5" y="1.5" width="35" height="35" rx="5.5" stroke="#D5DAE1"/>
</g>
<defs>
<filter id="filter0_d_1_1489" x="0" y="0" width="40" height="40" filterUnits="userSpaceOnUse" color-interpolation-filters="sRGB">
<feFlood flood-opacity="0" result="BackgroundImageFix"/>
<feColorMatrix in="SourceAlpha" type="matrix" values="0 0 0 0 0 0 0 0 0 0 0 0 0 0 0 0 0 0 127 0" result="hardAlpha"/>
<feOffset dy="1"/>
<feGaussianBlur stdDeviation="1"/>
<feColorMatrix type="matrix" values="0 0 0 0 0.411765 0 0 0 0 0.317647 0 0 0 0 1 0 0 0 0.05 0"/>
<feBlend mode="normal" in2="BackgroundImageFix" result="effect1_dropShadow_1_1489"/>
<feBlend mode="normal" in="SourceGraphic" in2="effect1_dropShadow_1_1489" result="shape"/>
</filter>
</defs>
</svg>
