<svg width="40" height="40" viewBox="0 0 40 40" fill="none" xmlns="http://www.w3.org/2000/svg">
<g filter="url(#filter0_d_1_1488)">
<rect x="2" y="1" width="36" height="36" rx="6" fill="white"/>
<path d="M28.3333 13.8334C27.7069 14.1051 27.0445 14.2848 26.3667 14.3667C27.0818 13.9395 27.6177 13.2674 27.875 12.4751C27.203 12.8751 26.4673 13.157 25.7 13.3084C25.1871 12.7522 24.5041 12.382 23.7582 12.2558C23.0122 12.1296 22.2455 12.2545 21.5782 12.611C20.9109 12.9676 20.3808 13.5355 20.071 14.2257C19.7613 14.916 19.6894 15.6895 19.8667 16.4251C18.5079 16.3563 17.1787 16.0025 15.9655 15.3866C14.7524 14.7707 13.6824 13.9065 12.825 12.8501C12.5243 13.3752 12.3663 13.9699 12.3667 14.5751C12.3656 15.137 12.5035 15.6906 12.7681 16.1864C13.0327 16.6821 13.4159 17.1048 13.8833 17.4167C13.34 17.4019 12.8082 17.2561 12.3333 16.9917V17.0334C12.3374 17.8208 12.6133 18.5826 13.1144 19.19C13.6155 19.7974 14.311 20.2131 15.0833 20.3667C14.786 20.4572 14.4774 20.5049 14.1667 20.5084C13.9516 20.5059 13.737 20.4864 13.525 20.4501C13.7449 21.1274 14.1705 21.7193 14.7426 22.1435C15.3146 22.5677 16.0046 22.803 16.7167 22.8167C15.5143 23.7628 14.0299 24.2791 12.5 24.2834C12.2214 24.2843 11.9431 24.2676 11.6667 24.2334C13.2287 25.2419 15.049 25.7773 16.9083 25.7751C18.1914 25.7884 19.4643 25.5459 20.6526 25.0618C21.8409 24.5777 22.9209 23.8616 23.8293 22.9555C24.7378 22.0493 25.4566 20.9712 25.9438 19.7841C26.431 18.5971 26.6767 17.3248 26.6667 16.0417C26.6667 15.9001 26.6667 15.7501 26.6667 15.6001C27.3206 15.1124 27.8846 14.5146 28.3333 13.8334Z" fill="#556987"/>
<rect x="2.5" y="1.5" width="35" height="35" rx="5.5" stroke="#D5DAE1"/>
</g>
<defs>
<filter id="filter0_d_1_1488" x="0" y="0" width="40" height="40" filterUnits="userSpaceOnUse" color-interpolation-filters="sRGB">
<feFlood flood-opacity="0" result="BackgroundImageFix"/>
<feColorMatrix in="SourceAlpha" type="matrix" values="0 0 0 0 0 0 0 0 0 0 0 0 0 0 0 0 0 0 127 0" result="hardAlpha"/>
<feOffset dy="1"/>
<feGaussianBlur stdDeviation="1"/>
<feColorMatrix type="matrix" values="0 0 0 0 0.411765 0 0 0 0 0.317647 0 0 0 0 1 0 0 0 0.05 0"/>
<feBlend mode="normal" in2="BackgroundImageFix" result="effect1_dropShadow_1_1488"/>
<feBlend mode="normal" in="SourceGraphic" in2="effect1_dropShadow_1_1488" result="shape"/>
</filter>
</defs>
</svg>
